<?xml version="1.0"?>
<svg xmlns="http://www.w3.org/2000/svg" xmlns:xlink="http://www.w3.org/1999/xlink" xmlns:svgjs="http://svgjs.com/svgjs"
    version="1.1" width="32" height="32" x="0" y="0" viewBox="0 0 24 24" style="enable-background:new 0 0 512 512"
    xml:space="preserve" class="">
    <g>
        <path xmlns="http://www.w3.org/2000/svg"
            d="m13.432 3.4c-.585.586-.585 1.536 0 2.122l-.707-.708c-.586-.585-1.535-.585-2.121 0-.586.586-.586 1.536 0 2.122l-.708-.706c-.586-.586-1.535-.586-2.121 0-.586.585-.586 1.535 0 2.121l-4.243-4.244c-.586-.585-1.535-.585-2.121 0-.586.586-.586 1.536 0 2.122l8.839 8.839-4.24 1.016-.002.002c-.255.057-.503.191-.708.396-.587.587-.587 1.534 0 2.121.205.205.46.347.729.403l-.004-.002 8.433 1.933c1.342.308 2.748-.097 3.722-1.07l3.385-3.385c1.953-1.953 1.953-5.119 0-7.071l-6.011-6.011c-.586-.586-1.536-.586-2.122 0z"
            fill="#ff8383" data-original="#ffcc80" style="" class="" />
        <g xmlns="http://www.w3.org/2000/svg" fill="#ffa726">
            <path d="m13.001 4.384 1.846 1.846c-.198.197-.51.197-.708 0l-.707-.707c-.311-.312-.459-.729-.431-1.139z"
                fill="#ef4b4b" data-original="#ffa726" style="" class="" />
            <path d="m10.172 5.798 2.553 2.553c-.197.198-.509.198-.707 0l-1.414-1.414c-.312-.312-.46-.729-.432-1.139z"
                fill="#ef4b4b" data-original="#ffa726" style="" class="" />
            <path d="m7.344 7.212 3.26 3.26c-.198.198-.509.198-.707 0l-2.122-2.121c-.311-.312-.46-.729-.431-1.139z"
                fill="#ef4b4b" data-original="#ffa726" style="" class="" />
        </g>
        <path xmlns="http://www.w3.org/2000/svg"
            d="m7.344 7.212c-.023.322.064.647.253.924l.001.001.002.004.004.004.002.004.003.004.001.002.004.005.002.003.004.005.001.002.004.006.001.001.005.007.001.001.005.007.001.001.005.007h.001l.005.006.001.001.005.007.001.001.004.007h.001l.017.022h.001l.006.007v.001l.005.006.001.001.005.007.001.001.006.006v.001l.006.006h.001l.006.007v.001l.006.007h.001l.006.007.006.007h.001l.006.007.001.001.006.006.001.001.006.006.006.007h.001l.006.007.007.007 2.121 2.121c.099.099.227.148.354.148s.255-.05.354-.148z"
            fill="#ef4b4b" data-original="#de9121" style="" class="" />
        <path xmlns="http://www.w3.org/2000/svg"
            d="m7.768 8.343c.001.001.002.002.003.003-.001-.001-.002-.002-.003-.003zm-.003-.003c.001.001.001.001.002.002-.001-.001-.001-.001-.002-.002zm-.003-.003s.001.001.001.001-.001-.001-.001-.001zm-.004-.004s.001.001.002.002c-.001-.001-.002-.002-.002-.002zm-.004-.004c.001.001.002.001.002.002 0-.001-.001-.001-.002-.002zm-.003-.003c.001.001.001.001.002.002-.001-.001-.001-.002-.002-.002zm-.004-.004.002.002c0-.001-.001-.001-.002-.002zm-.003-.004c.001.001.001.002.002.002-.001 0-.001-.001-.002-.002zm-.007-.007.002.002c-.001-.001-.001-.001-.002-.002zm-.013-.014c0 .001.001.001.001.002 0-.001 0-.002-.001-.002zm-.012-.013c.001 0 .001 0 0 0zm-.003-.004c.001.001.001.001 0 0zm-.009-.011s0 .001 0 0zm-.007-.007c.001 0 .001 0 0 0zm-.003-.004s.001.001 0 0c.001.001 0 0 0 0zm-.07-.089c0 .001.001.001.001.002 0-.001 0-.001-.001-.002zm-.002-.004c0 .001.001.002.002.003-.001-.001-.002-.002-.002-.003zm-.003-.004c.001.001.002.002.002.003-.001-.001-.002-.002-.002-.003zm-.003-.004c.001.001.001.002.002.003-.001-.001-.001-.002-.002-.003zm-.01-.014c.001.002.002.003.003.005-.001-.002-.002-.004-.003-.005zm-.005-.007c.001.001.001.001 0 0zm3-1.207c.001.001.002.002.002.002-.001 0-.002-.001-.002-.002zm-.004-.003c0 .001.001.001.002.002-.001-.001-.001-.002-.002-.002zm-.003-.004s.001.001.001.001c-.001 0-.001 0-.001-.001zm-.004-.003s.001.001.001.001 0-.001-.001-.001zm-.003-.004s.001.001.001.001c-.001 0-.001 0-.001-.001zm-.003-.003s0 .001 0 0zm-.004-.004c0 .001.001.001 0 0 .001.001 0 .001 0 0zm-.173-.219c0 .001.001.001.001.002 0 0 0-.001-.001-.002zm1.261-2.313c-.384 0-.768.146-1.061.439-.509.509-.576 1.293-.201 1.874-.173-.269-.252-.582-.231-.891l1.829 1.828v-3.212c-.11-.026-.223-.038-.336-.038zm-9.192-.707c-.384 0-.768.146-1.061.439-.586.586-.586 1.536 0 2.122l8.839 8.839-4.24 1.016-.002.002c-.255.057-.503.191-.708.396-.587.587-.587 1.534 0 2.121.205.205.46.347.729.403l-.004-.002 5.975 1.369v-12.041l-1.396-1.397c-.001-.001-.002-.002-.004-.004.001.001.002.002.004.004l-.708-.706c-.292-.293-.676-.44-1.06-.44s-.768.147-1.061.44c-.475.474-.565 1.19-.268 1.756-.125-.239-.181-.505-.164-.769 0-.002 0-.004 0-.005l3.26 3.26c-.001.001-.002.002-.002.002-.099.098-.225.146-.351.146s-.252-.049-.351-.146c-.001-.001-.002-.002-.002-.002l-2.122-2.121c-.001-.002-.002-.003-.003-.004l.004.004-4.244-4.244c-.293-.292-.677-.438-1.06-.438z"
            fill="#ef4b4b" data-original="#deb26f" style="" class="" />
        <path xmlns="http://www.w3.org/2000/svg"
            d="m10.172 5.798c-.021.309.058.622.231.891v.001c0 .001.001.001.001.002.047.073.101.142.162.207.001.001.002.002.003.003s.002.002.003.003.002.002.003.003c0 0 0 0 .001.001s.002.002.003.003c0 0 .001.001.001.001.001.001.002.002.003.003 0 0 .001.001.001.001.001.001.002.002.002.003 0 0 .001.001.001.001.001.001.002.002.002.002s.001.001.001.001c.001.001.001.001.002.002s.001.001.002.002.001.001.002.002.002.002.002.002.001.001.001.001c.001.001.002.002.004.004l1.397 1.396v-.707z"
            fill="#ef4b4b" data-original="#de9121" style="" class="" />
        <path xmlns="http://www.w3.org/2000/svg"
            d="m10.601 10.474c-.098.097-.225.146-.351.146s-.253-.049-.351-.146c.099.098.225.146.351.146s.252-.048.351-.146zm-2.838-2.137s0 .001.001.001c0 .001 0 .001.001.002s.001.001.002.002c0 0 .001.001.001.001.001.001.002.002.003.003 0 0 .001.001.001.001l.004.004 2.121 2.121-2.122-2.121-.006-.007zm-.019-.019c.001.001.001.002.002.002.001.001.001.001.002.002s.001.001.002.002c0 0 0 .001.001.002s.001.001.002.002l.002.002s.001 0 .001.001c.001.001.001.001.002.002 0 0 .001.001.002.002 0 0 0 0 .001.001l-.005-.006-.001-.001-.006-.006-.001-.001zm-.009-.009c.001.001.002.001.002.002.001.001.001.001.002.002 0 0 .001.001.001.001zm-.012-.014c0 .001.001.001.001.002s.001.001.001.002zm-.013-.015c0 .001 0 .001 0 0 .001.002.002.003.003.004 0 0 .001.001.001.001l.003.003zm-.011-.012c0 .001 0 .001 0 0 .001.001.001.002.001.002.001.001.002.002.002.003v-.001zm-.011-.013c.001.001.001.002.002.003 0 0 .001.001.001.001.001.001.002.002.002.003 0 0 0 .001.001.001l-.003-.004-.001-.001zm-.009-.011c0 .001.001.002.002.004l.003.003zm-.018-.022c.003.004.006.008.009.012zm-.017-.022c.001.001.001.002.002.003s.002.002.003.003c.001.002.002.003.003.005.001.001.002.002.003.004s.002.003.004.005l-.004-.005-.001-.001-.005-.007-.001-.001zm-.007-.008c0 .001.001.001.001.002zm-.005-.008c.001.001.001.001.001.002zm-.02-.027c.001.001.001.002.002.003v.001c.001.001.002.002.002.003 0 0 0 .001.001.001l.003.003s.001.001.001.001c0 .001.001.001.001.002l-.001-.001-.001-.002-.004-.005-.002-.003zm-.01-.014c.001.002.002.003.003.005l-.001-.003zm-.005-.007c.001.001.001.001 0 0zm-.253-.924v.005c0-.002 0-.003 0-.005z"
            fill="#ef4b4b" data-original="#de9121" style="" class="" />
        <path xmlns="http://www.w3.org/2000/svg"
            d="m7.344 7.212v.005c-.017.264.039.53.164.769.027.051.057.101.09.15l.001.001.001.004.002.002.002.002.001.003.001.001.003.004.001.002.002.002.002.003.002.003.004.005.001.002.001.001.003.005.001.001.005.007.001.001.001.002.004.005.001.001.001.001.004.006h.001l.005.006.001.001.005.007.001.001.003.004.001.003h.001l.009.012.007.01h.001l.006.007v.001l.003.003.003.003.001.001.003.004.002.003.001.001.002.002.004.004v.001l.006.006h.001l.006.007v.001l.006.007h.001l.003.004.003.003.006.007h.001l.004.005.001.001.001.001.002.002.004.004.001.001.006.006.001.001.004.005.001.002h.001l.006.007.007.007 2.121 2.121c.001.001.002.002.002.002.098.097.225.146.351.146s.253-.049.351-.146c.001-.001.002-.002.002-.002z"
            fill="#ff8383" data-original="#c17e1d" style="" class="" />
    </g>
</svg>